<?xml version="1.0" encoding="utf-8"?>
<!-- Generator: Adobe Illustrator 23.0.1, SVG Export Plug-In . SVG Version: 6.00 Build 0)  -->
<svg version="1.1" id="_025_SCIENCE" xmlns="http://www.w3.org/2000/svg" xmlns:xlink="http://www.w3.org/1999/xlink" x="0px"
	 y="0px" viewBox="0 0 24 24" style="enable-background:new 0 0 24 24;" xml:space="preserve">
<style type="text/css">
	.st0{fill:#FFFFFF;}
</style>
<path class="st0" d="M12,22c-0.3,0-0.5-0.1-0.7-0.3c-0.4-0.4-0.4-1,0-1.4c0,0,0,0,0,0c2.1-2.1,2.1-5.5,0-7.6
	c-2.9-2.9-2.9-7.5,0-10.4c0.4-0.4,1-0.4,1.4,0s0.4,1,0,1.4c-2.1,2.1-2.1,5.5,0,7.6c2.9,2.9,2.9,7.5,0,10.4C12.5,21.9,12.3,22,12,22z
	"/>
<path class="st0" d="M19.8,17.5c-0.5,0-0.9-0.3-1-0.7c-0.8-2.8-3.7-4.5-6.5-3.8c-3.9,1-7.9-1.3-9-5.2C3.1,7.3,3.4,6.7,3.9,6.5
	C4.5,6.4,5,6.7,5.2,7.2c0,0,0,0,0,0.1c0.8,2.8,3.7,4.5,6.5,3.7c3.9-1,7.9,1.3,9,5.2c0.1,0.5-0.2,1.1-0.7,1.2c0,0,0,0,0,0
	C20,17.5,19.9,17.5,19.8,17.5z"/>
<path class="st0" d="M5.8,17.7c-0.6,0-1.2-0.1-1.8-0.3c-0.5-0.1-0.9-0.7-0.7-1.2c0.1-0.5,0.7-0.9,1.2-0.7l0,0c2.8,0.7,5.7-1,6.5-3.8
	c1.1-3.9,5.1-6.2,9-5.2c0.5,0.1,0.9,0.7,0.7,1.2S20,8.6,19.5,8.5c-2.8-0.7-5.7,1-6.5,3.8C12.1,15.5,9.2,17.7,5.8,17.7z"/>
</svg>
