<?xml version="1.0" encoding="utf-8"?>
<!-- Generator: Adobe Illustrator 23.0.1, SVG Export Plug-In . SVG Version: 6.00 Build 0)  -->
<svg version="1.1" id="Capa_1" xmlns="http://www.w3.org/2000/svg" xmlns:xlink="http://www.w3.org/1999/xlink" x="0px" y="0px"
	 viewBox="0 0 247.6 247.6" style="enable-background:new 0 0 247.6 247.6;" xml:space="preserve">
<style type="text/css">
	.st0{fill:#FFFFFF;stroke:#FFFFFF;stroke-miterlimit:10;}
</style>
<g>
	<path class="st0" d="M196.7,93V76.4h10v-21h-10v-15h-25v15h-11v21h11v16.4c-29,5.6-51.6,31.6-51.6,62.6c0,35.2,28.7,63.8,63.9,63.8
		c35.2,0,63.6-28.6,63.6-63.8C247.6,124.8,225.7,99.1,196.7,93z M184,194.3c-21.4,0-38.8-17.4-38.8-38.8c0-21.4,17.4-38.8,38.8-38.8
		c21.4,0,38.8,17.4,38.8,38.8C222.8,176.9,205.4,194.3,184,194.3z"/>
	<path class="st0" d="M127.6,91.4c0-35.2-28.5-63.8-63.7-63.8S0,56.2,0,91.4c0,31.1,22.7,57,51.7,62.6v28l-8.2-7.1L30,191l34.3,28.9
		l35.3-28.8l-13.4-16.3l-9.5,7.7v-28.7C105.7,147.8,127.6,122.1,127.6,91.4z M25.2,91.4C25.2,70,42.6,52.6,64,52.6
		s38.8,17.4,38.8,38.8c0,21.4-17.4,38.8-38.8,38.8S25.2,112.8,25.2,91.4z"/>
</g>
</svg>
