<svg id="Camada_1" data-name="Camada 1" xmlns="http://www.w3.org/2000/svg" viewBox="0 0 384 386.11"><defs><style>.cls-1{fill:#333940;}.cls-2{fill:#23272b;}.cls-3{fill:#fe936e;}.cls-4{fill:#feb398;}.cls-5{fill:#f1cbbc;}.cls-6{fill:#e2744d;}.cls-7{fill:#df6a24;}.cls-8{fill:#d41b46;}.cls-9{fill:#f4f4fb;}.cls-10{fill:#ddddf3;}</style></defs><title>human</title><path class="cls-1" d="M46.35,130.51C53.5,69.19,101.15,17.84,162.57,5.14c5.29-1.09,10.79-1,15.93-2.94H192c1.53,1.81,1.18,4,1.19,6.1.05,23.37-.05,46.75.07,70.12a4.92,4.92,0,0,1-1.09,2.41c-6.1,11-15.5,18.48-26.09,24.66-18,10.53-37.81,16.24-58,20.79a443.85,443.85,0,0,1-51.81,8.06,63.16,63.16,0,0,1-6.74.1C46.87,134.42,45.48,133.4,46.35,130.51Z"/><path class="cls-2" d="M192.62,79.68a14.3,14.3,0,0,1-.63-5.16q0-36.16,0-72.32h12c8.66.74,17.3,1.52,25.74,3.88C254.39,13,276,25,294.47,42.81a147,147,0,0,1,38.31,61.25c2.88,8.89,5.35,18,5.64,27.42-.32,3-2.58,3-4.74,3-8,.07-15.91-1.2-23.81-2.27-22.42-3.05-44.57-7.36-66-15-11.56-4.11-22.73-9-32.85-16.08a68.82,68.82,0,0,1-16.61-16.05C193.3,83.51,191.82,81.94,192.62,79.68Z"/><path class="cls-3" d="M339.76,162.06a33.64,33.64,0,0,1,43.58,26,9.15,9.15,0,0,0,.66,1.68v31.5c-1.63,6.55-3.75,12.88-8.51,18C365.34,250,353.11,252.89,339,248.76c-1.52-.59-1.37-1.91-1.36-3.15.33-26,0-52,.18-77.92C337.84,165.66,337.35,163.32,339.76,162.06Z"/><path class="cls-4" d="M339.76,162.06c-1.05,1.44-.76,3.1-.76,4.7,0,25.16-.05,50.32.06,75.47,0,2.18-1.2,4.36-.05,6.53-1.53,4.76-1.35,9.76-2.18,14.63a144.52,144.52,0,0,1-31.62,69.22c-21.53,25.93-48.78,42.72-81.68,50.14A127.69,127.69,0,0,1,192,386.11a5,5,0,0,1-1.2-3.82c0-12.71-.1-25.43,0-38.14a7.57,7.57,0,0,1,.27-1.84,3.56,3.56,0,0,1,.6-1.2c2.33-1.4,5-1.41,7.59-1.68,20.4-2.19,40.28-19.11,45.77-38.84.84-3-.32-3.39-2.85-3.38-17,.09-34,0-51,.09-15.5.18-31,.05-46.47.08a48,48,0,0,0-7.48.48c-1.78-.54-1.52-1.58-.66-2.77a6.24,6.24,0,0,1,3.6-.82c17.09,0,34.17-.17,51.26.07,16.42,0,32.85,0,49.28,0,5.58,0,6.18-.61,6.31-6.17.19-8-1.8-11.25-8.31-13.61a13.56,13.56,0,0,0-5.18-.52c-12.36,0-24.72,0-37.08,0-4.9,0-5.69-.73-5.7-5.63,0-4.36-.44-8.74.36-13.07,1.08-2.53,3.47-2.56,5.67-2.82a31.17,31.17,0,0,0,17.89-8.66,10.82,10.82,0,0,0,2.5-11.75,10.23,10.23,0,0,0-9.92-6.05c-2.88.16-5.23,1.58-7.4,3.31a11.59,11.59,0,0,1-5.28,2.67c-1.43.26-2.78.33-3.44-1.37a20.26,20.26,0,0,1-.43-6q0-68.5,0-137a43.92,43.92,0,0,1,.74-7.43c.14-.67.68-.5,1.12-.55,2.79,6.64,7.73,11.57,13.1,16.07,12.85,10.75,28,17.19,43.71,22.25,27.68,8.88,56.15,13.61,85.12,15.56,1.63.11,3.42.5,3.2-2.13A199.18,199.18,0,0,1,339,157.84C339,159.26,338.36,160.88,339.76,162.06Z"/><path class="cls-5" d="M192,254.17c0,4.87.16,9.75-.1,14.6-.17,3.22.69,4.31,4.11,4.26,13.1-.21,26.21-.1,39.32-.07,1.32,0,2.78-.45,3.92.68-1.13,1.26-2.68,1.24-4.16,1.24-14.23,0-28.46.17-42.69-.08-14.57.08-29.15,0-43.73,0-8.3,0-11.67,3.54-11.88,11.82-.07,2.92,1.4,5.92-.31,8.78,0,.81-.16,1.67.61,2.28,2.41,2.56,2.72,6.08,4.14,9.1,9.39,20,25.37,30.55,46.89,33.39,1.33.18,2.8-.18,3.85,1q0,22.44,0,44.87A146.66,146.66,0,0,1,81.33,335.72a143.56,143.56,0,0,1-32.58-64.25,121.41,121.41,0,0,1-3-20.6,2.34,2.34,0,0,0-.76-2c-1.21-2-1.15-4.31-1.16-6.54-.06-25.79,0-51.59,0-77.38a5.75,5.75,0,0,1,.45-2.92c1.08-.82.83-2,.77-3.09-.44-8.68.71-17.32.68-26a2.92,2.92,0,0,1,.67-2.43c0,1.73-.36,3.37,2.58,3.14,37.62-2.93,74.58-8.82,109.11-25,13.62-6.4,25.7-14.92,33.46-28.38.69.87.49,1.9.49,2.88q0,74.27,0,148.54l-.49.26c-2.94.33-5.27-.95-7.57-2.62-6.53-4.75-12.3-4.39-16.1.84s-2,11.58,4.2,16.09c4.85,3.53,10.09,5.95,16.15,6.37a6.87,6.87,0,0,1,3.52,1.14Z"/><path class="cls-4" d="M44.23,162c1,1.45.77,3.11.77,4.71,0,25.2,0,50.4-.07,75.59,0,2.18,1.26,4.37,0,6.54-11.34,3.23-22,2.09-31.55-5.21A32.62,32.62,0,0,1,0,217.65c-.21-7.49,0-15,0-22.48,0-20.73,15.85-35.79,36.57-34.66C39.14,160.65,41.68,161.5,44.23,162Z"/><path class="cls-6" d="M237.05,160.45a33.38,33.38,0,0,1,33.74,34.42,10.94,10.94,0,0,1-9.41,10.52c-4.82.77-10.73-2.76-12.2-7.39a21,21,0,0,1-.85-4.39c-.64-6.5-5-10.64-11.22-10.66a11.36,11.36,0,0,0-11.25,10.84,11.6,11.6,0,0,1-12.3,11.66c-6.16-.56-10.82-6.76-10.26-13.79A34,34,0,0,1,237.05,160.45Z"/><path class="cls-7" d="M192,341.24c-21.95-1.06-38.66-10.82-49.65-30a49.64,49.64,0,0,1-5.23-13.54c.2-1.88,1.65-1.52,2.83-1.52q26,0,52,.08c1.36,1.41,1.22,3.2,1.23,4.93q0,17.37,0,34.73c0,1.71.21,3.53-1.22,4.91A1.72,1.72,0,0,0,192,341.24Z"/><path class="cls-8" d="M192,340.85V296.28c17.58-.06,35.17-.07,52.75-.22,3.37,0,2.14,1.95,1.72,3.39-4,13.82-12,24.82-24.11,32.62A52.72,52.72,0,0,1,192,340.85Z"/><path class="cls-9" d="M136.51,295.44a56.09,56.09,0,0,1-.78-11.13,10.66,10.66,0,0,1,10.63-10.64c15.21,0,30.42,0,45.64,0a5,5,0,0,1,1.15,3.44q.14,7.39,0,14.81a4.53,4.53,0,0,1-1.2,3.39Z"/><path class="cls-10" d="M191.94,295.34,192,273.7l47.28-.06a11,11,0,0,1,9,10.83c.19,11,.19,11-10.59,11Z"/><path class="cls-3" d="M192,231.65a16.78,16.78,0,0,0,8.26-3.8c5.54-4.61,13-3.67,16.84,1.62s2.08,12.64-3.67,17c-6.35,4.86-13.56,7-21.36,7.66h0a4,4,0,0,1-1.11-2.7c-.18-5.83-.24-11.66,0-17.49a3.16,3.16,0,0,1,1-2.33Z"/><path class="cls-3" d="M147,160.45a34,34,0,0,1,33.73,31.23c.56,7-4.14,13.25-10.28,13.77a11.47,11.47,0,0,1-12.26-11.68,10.3,10.3,0,0,0-3.62-7.55c-3.43-3.25-7.27-4.19-11.69-2.52a10.39,10.39,0,0,0-7.15,9.57c-.75,9.1-7.9,14.29-15.62,11.36a10.93,10.93,0,0,1-6.9-9.79C111.94,177.39,127.77,160,147,160.45Z"/><path class="cls-4" d="M192,231.65q0,11.26.07,22.52c-7.82-.61-15.07-2.75-21.38-7.65-4-3.13-6.39-6.93-5.62-12.19a10.68,10.68,0,0,1,6.83-8.65,10.07,10.07,0,0,1,10.26,1.17C185.15,229,188.05,231.31,192,231.65Z"/></svg>