<?xml version="1.0" encoding="utf-8"?>
<!-- Generator: Adobe Illustrator 23.0.1, SVG Export Plug-In . SVG Version: 6.00 Build 0)  -->
<svg version="1.1"
	 id="svg2" inkscape:version="0.48.4 r9939" sodipodi:docname="male.svg" xmlns:cc="http://creativecommons.org/ns#" xmlns:dc="http://purl.org/dc/elements/1.1/" xmlns:inkscape="http://www.inkscape.org/namespaces/inkscape" xmlns:rdf="http://www.w3.org/1999/02/22-rdf-syntax-ns#" xmlns:sodipodi="http://sodipodi.sourceforge.net/DTD/sodipodi-0.dtd" xmlns:svg="http://www.w3.org/2000/svg"
	 xmlns="http://www.w3.org/2000/svg" xmlns:xlink="http://www.w3.org/1999/xlink" x="0px" y="0px" viewBox="0 0 1200 1200"
	 style="enable-background:new 0 0 1200 1200;" xml:space="preserve">
<style type="text/css">
	.st0{fill:#FFFFFF;}
</style>
<path id="path14064" inkscape:connector-curvature="0" class="st0" d="M727.5,0v167.1h182.3L669.5,405.8
	c-67.4-43.6-147.8-69-234.1-69C197,336.9,3.8,530.1,3.8,768.4C3.8,1006.8,197,1200,435.3,1200s431.5-193.2,431.5-431.6
	c0-90.6-27.9-174.7-75.6-244.1L1027.6,288v180.7h167.1c0-146.5,1.6-322.7,1.6-468.8H727.5z M435.3,510.6
	c142.4,0,257.8,115.4,257.8,257.8s-115.4,257.9-257.8,257.9S177.5,910.8,177.5,768.4S292.9,510.6,435.3,510.6L435.3,510.6z"/>
</svg>
