<?xml version="1.0" encoding="utf-8"?>
<!-- Generator: Adobe Illustrator 23.0.1, SVG Export Plug-In . SVG Version: 6.00 Build 0)  -->
<svg version="1.1" id="Layer_1" xmlns="http://www.w3.org/2000/svg" xmlns:xlink="http://www.w3.org/1999/xlink" x="0px" y="0px"
	 viewBox="0 0 260 260" style="enable-background:new 0 0 260 260;" xml:space="preserve">
<style type="text/css">
	.st0{fill:#FFFFFF;}
</style>
<path class="st0" d="M199,231.1c-13.3-57.5-90.5-86.2-108.6-107.1c-9.3-10.7-7-22.2-1.2-28.3c6.2-6.6,18.1-7.9,27-2.1
	c7.8,5.1,22.9,19.1,26.3,24.2c3.4,5.2,3.4,9.4,5.2,12.9c2.1,3.9,6.8,6,13.5,3.9c6.3-1.9,9.8-4.4,9.8-4.4s-6.6-0.3-9.2-3.9
	c0,0-9.1-19.9-12.4-28.1c10.4,2.8,17.1,6,21.7,8.9c0.6,4.4-1.3,12.1-1.4,12.4c0.2-0.1,3.6-2.1,8.6-7.1c0.3,0.2,0.5,0.4,0.7,0.6
	c1.8,1.4-1.5,12.6-1.5,12.6s6.1-4.1,10.8-9.7c4.1-4.8,7.5-10.9,7.5-10.9s-13.3-5.6-19.4-15.3c-6.1-9.7-0.8-20.2-0.8-20.2
	s-10.2-3.3-18.8-15.6c-9-13-5.5-28.9-5.5-28.9c-7.3,2.9-13.7,17.5-13.7,17.5s-18.5-9.9-42.5-6.8C73.5,35.7,53.3,22.5,45,1.8
	c0,0-6.5,28.4,18,46.3c-1.3,0.9-2.7,1.8-4,2.9c-12,6.8-27.1,6.4-38.8-1.8c0,0,0.6,4.3,2.9,9.4c2.3,5.1,6.2,11.1,12.8,14.5
	c0.7,0.4,1.4,0.7,2.1,0.9c-1.4,2.2-2.7,4.5-3.8,6.8C27.7,91.8,14.6,97.3,2,94c0,0,6.6,12,18.4,13.5c2.7,0.3,5.1-0.1,7.1-0.9
	c-0.1,5,0.1,9.6,0.7,14.1c-0.3,9.7-6.8,18.3-16.4,21h0c0,0,9.2,5.5,17.7,1.8c1.7-0.7,2.9-1.7,3.9-2.8c7,16.9,19.6,30.5,35.8,46
	c4.3,4.2,9.2,8.6,14.1,13.3c48.5,2.8,85.2,24.5,116.3,57.9C200.7,250.6,201.4,241.6,199,231.1z M147.9,70.1l13.7,13.7l-21.9-7.9
	L147.9,70.1z M181,133.3c0,0,6.7,6.8,16,8.2c-0.6,3.7-1.6,5.6-1.6,5.6s16,12.9,35.5,4.6c-0.9,10.3-13.6,14.8-13.6,14.8
	s13.7,17,40.7,6.6c-14.7,19.1-36.5,13.8-49.8,6.9C196.2,173.8,180.8,155.7,181,133.3z"/>
</svg>
