<?xml version="1.0" encoding="utf-8"?>
<!-- Generator: Adobe Illustrator 23.0.1, SVG Export Plug-In . SVG Version: 6.00 Build 0)  -->
<svg version="1.1" id="Layer_1" xmlns="http://www.w3.org/2000/svg" xmlns:xlink="http://www.w3.org/1999/xlink" x="0px" y="0px"
	 viewBox="0 0 356.4 406.3" style="enable-background:new 0 0 356.4 406.3;" xml:space="preserve">
<style type="text/css">
	.st0{fill:#363B3F;}
	.st1{fill:#9DBAB8;}
	.st2{fill:#8DAAA7;}
	.st3{fill:#191E21;}
	.st4{fill:#8FA8A8;}
	.st5{fill:#799998;}
	.st6{fill:#DB1F1F;}
	.st7{fill:#E29B86;}
	.st8{fill:#F9C1AC;}
	.st9{fill:#AAD1CA;}
	.st10{fill:#870E0E;}
</style>
<g>
	<path class="st0" d="M164.6,204.3c11.9,12.2,4.4,36-16.9,53.3C126.4,274.8,12,349.7,0,337.5c-11.9-12.2,83.2-106.9,104.5-124.1
		C125.7,196.2,152.7,192.1,164.6,204.3z"/>
	<path class="st0" d="M190.8,204.3c-11.9,12.2-4.4,36,16.9,53.3c21.3,17.2,135.7,92.1,147.7,79.9c11.9-12.2-83.2-106.9-104.5-124.1
		C229.6,196.2,202.7,192.1,190.8,204.3z"/>
</g>
<path class="st1" d="M277.3,315.2c0,126.3-44.6,84.3-99.6,84.3s-99.6,42.1-99.6-84.3c0-72.2,44.6-130.8,99.6-130.8
	C232.7,184.5,277.3,243,277.3,315.2z"/>
<path class="st2" d="M177.7,184.5c55,0,99.6,58.5,99.6,130.8c0,126.3-44.6,84.3-99.6,84.3"/>
<path class="st3" d="M98.7,235.7c21.8,11.1,49.2,16.7,79,16.7s57.1-5.6,79-16.7c-18.2-31.1-46.8-51.3-79-51.3
	C145.5,184.5,116.9,204.6,98.7,235.7z"/>
<path class="st1" d="M306.6,124.3c0,63-57.7,94.7-128.9,94.7s-129-31.7-129-94.7S106.5,0,177.7,0S306.6,61.2,306.6,124.3z"/>
<path class="st4" d="M306.6,124.3c0,63-57.7,94.7-128.9,94.7s-129-31.7-129-94.7s57.8-94.1,129-94.1
	C248.9,30.2,306.6,61.2,306.6,124.3z"/>
<path class="st5" d="M306.6,124.3c0,63-57.7,94.7-128.9,94.7s-129-31.7-129-94.7"/>
<path class="st0" d="M284,128.7c0,8.7-7.1,15.8-15.8,15.8H87.1c-8.7,0-15.8-7.1-15.8-15.8v-13.1c0-8.7,7.1-15.8,15.8-15.8h181.2
	c8.7,0,15.8,7.1,15.8,15.8L284,128.7L284,128.7z"/>
<path class="st3" d="M71.4,122.1v4.9c0,9.7,7.1,17.6,15.8,17.6h181.2c8.7,0,15.8-7.9,15.8-17.6V122C284.2,122,71.4,122,71.4,122.1z"
	/>
<path class="st6" d="M190.1,133.1c0,4.8-3.9,8.7-8.7,8.7l0,0c-4.8,0-8.7-3.9-8.7-8.7V111c0-4.8,3.9-8.7,8.7-8.7l0,0
	c4.8,0,8.7,3.9,8.7,8.7V133.1z"/>
<path class="st3" d="M54.8,156.9c16.5,41.3,65.3,69.9,122.9,69.9s106.4-28.6,122.9-69.9H54.8L54.8,156.9z"/>
<path class="st7" d="M201.8,165.6h-48.2c-13,0-23.6,10.6-23.6,23.6v30.6c14.8,4.5,30.9,7,47.8,7s33-2.5,47.7-7v-30.6
	C225.4,176.2,214.9,165.6,201.8,165.6z"/>
<path class="st8" d="M201.8,176.1h-48.2c-13,0-23.6,10.6-23.6,23.6v20.1c14.8,4.5,30.9,7,47.8,7s33-2.5,47.7-7v-20.1
	C225.4,186.7,214.9,176.1,201.8,176.1z"/>
<g>
	<path class="st9" d="M172.8,311.8c0,13-10.6,23.6-23.6,23.6h-29.5c-13,0-23.6-10.6-23.6-23.6v-29.5c0-13,10.6-23.6,23.6-23.6h29.5
		c13,0,23.6,10.6,23.6,23.6V311.8L172.8,311.8z"/>
</g>
<g>
	<path class="st0" d="M81.3,363.6c11.2,65.6,50.1,35.9,96.4,35.9s85.2,29.7,96.4-35.9H81.3z"/>
</g>
<g>
	<path class="st2" d="M123.8,278.6c0,1.3-1,2.3-2.3,2.3h-13.1c-1.3,0-2.3-1-2.3-2.3l0,0c0-1.3,1-2.3,2.3-2.3h13.1
		C122.7,276.3,123.8,277.4,123.8,278.6L123.8,278.6z"/>
	<path class="st2" d="M123.8,289.1c0,1.3-1,2.3-2.3,2.3h-13.1c-1.3,0-2.3-1-2.3-2.3l0,0c0-1.3,1-2.3,2.3-2.3h13.1
		C122.7,286.8,123.8,287.9,123.8,289.1L123.8,289.1z"/>
	<path class="st2" d="M123.8,299.6c0,1.3-1,2.3-2.3,2.3h-13.1c-1.3,0-2.3-1-2.3-2.3l0,0c0-1.3,1-2.3,2.3-2.3h13.1
		C122.7,297.3,123.8,298.4,123.8,299.6L123.8,299.6z"/>
</g>
<path class="st10" d="M196.1,190.7c0,3.9-8.2-0.5-18.4-0.5s-18.4,4.4-18.4,0.5s8.2-13.8,18.4-13.8
	C187.8,176.9,196.1,186.7,196.1,190.7z"/>
</svg>
