<svg id="svg2" xmlns="http://www.w3.org/2000/svg" viewBox="0 0 477.98 139.61"><defs><style>.cls-1{fill:#11b0c8;}</style></defs><title>Prancheta 1</title><g id="g14"><g id="g20"><path id="path22" class="cls-1" d="M326.74,120.58a10.6,10.6,0,0,0-1.88-6.81c-1.41-2.12-2.11-4.41-1.05-6.94l.17-.58a6,6,0,0,0-1.35-6.14,4.74,4.74,0,0,1-1.25-4.56,7.91,7.91,0,0,0-1-6.45,5.7,5.7,0,0,1-.45-5.84,36.31,36.31,0,0,0,1.83-5.54,7.17,7.17,0,0,0-.16-4.44,5.26,5.26,0,0,1-.05-3.35,35.51,35.51,0,0,0,.62-3.69,2.72,2.72,0,0,0-.9-2.44,3.42,3.42,0,0,1-1.1-3.12c.19-1.39.46-2.76-.27-4.1a1.76,1.76,0,0,1,0-.89,14.29,14.29,0,0,0-1.38-6.84,7.89,7.89,0,0,1-.63-4,28.32,28.32,0,0,0-.35-7.91c-.5-2.81-1.29-5.55-1.88-8.34a11.32,11.32,0,0,1-.28-2.95c.12-2,.36-4,.63-6a23.5,23.5,0,0,1,1.94-6.91c1-2.13,1.9-4.3,2.82-6.46a15.59,15.59,0,0,0,.8-2.42,3.51,3.51,0,0,0-.37-2.89c-.8-1.2-1.85-1.42-2.89-.42A12.33,12.33,0,0,0,316,3.44a29.11,29.11,0,0,1-4,5.62,6.5,6.5,0,0,0-1.61,4.25c-.12,3.17-.84,6.14-3.14,8.54a16.63,16.63,0,0,0-1.75,2.24,10.78,10.78,0,0,0-1.39,2.47,40.16,40.16,0,0,0-1.87,6.32c-.49,2.86-1.24,5.64-2,8.44a13.22,13.22,0,0,1-3.34,5.91A9.36,9.36,0,0,0,294.73,51c-.54,1.66-1,3.34-1.46,5a13.47,13.47,0,0,0-.42,2.35c-.35,3.79-.62,7.58-1,11.35a4.93,4.93,0,0,1-.63,2.71l-.26-.24a8.75,8.75,0,0,1-1.27-4.55,86.14,86.14,0,0,1-.58-11.35c0-1.15,0-2.31,0-3.45a2.55,2.55,0,0,0-1.07-2.2c-.27-.22-.55-.41-.87-.65.06-.7.12-1.4.17-2.09a6.46,6.46,0,0,0-1.19-4.68,3.35,3.35,0,0,1-.56-1.95c0-1.69.17-3.39.31-5.09a4.26,4.26,0,0,0-1.38-3.5,4.39,4.39,0,0,1-.76-.73,2.82,2.82,0,0,1-.65-1.41,34.67,34.67,0,0,1,.54-4.89c.26-1.27.83-2.46,1.19-3.71.65-2.26,1.33-4.51,1.85-6.8a2,2,0,0,0-1.31-2.43,1.79,1.79,0,0,0-2.48.7,62.06,62.06,0,0,0-3.62,5.5,10.08,10.08,0,0,0-.91,2.83,8.55,8.55,0,0,1-2,4.47,10.19,10.19,0,0,0-2.49,4.72,6.6,6.6,0,0,1-.4,1c-.81-2.1-1.15-2.31-2.92-1.88a4.89,4.89,0,0,0-.2-.86c-.49-1.19-1.43-1.37-2.31-.42a4.2,4.2,0,0,0-.93,1.34c-.68,1.88-1.37,3.76-1.91,5.68s-.8,3.92-1.31,5.85c-1.14,4.24-2,8.58-3.81,12.62a7,7,0,0,0-.41,1.59,22,22,0,0,0,.16,8.64,28.3,28.3,0,0,1,.13,10.3,11.38,11.38,0,0,1-3,5.58,11.89,11.89,0,0,0-2.93,9,14.88,14.88,0,0,0,1.16,4.78,10.37,10.37,0,0,1,.54,8.15,6.69,6.69,0,0,0-.36,1.45,6.38,6.38,0,0,0,.36,3.68,5.85,5.85,0,0,1,.47,2.31c0,3-.06,6.1-.06,9.15a6.35,6.35,0,0,0,.24,1.62,2,2,0,0,0,1.46,1.57c.88.2,1.41-.37,1.87-1a7.55,7.55,0,0,0,1.52-3.71,23.87,23.87,0,0,1,2-7A10.26,10.26,0,0,0,264,107a24.09,24.09,0,0,0-.8-6.53,4.29,4.29,0,0,1-.11-1.63,11.39,11.39,0,0,1,3.4-6.7,5.58,5.58,0,0,0,2-5.19c-.07-.5,0-1-.13-1.5a10,10,0,0,1,.2-4.45,45.1,45.1,0,0,0,1.15-6.18,64.75,64.75,0,0,1,1.69-10.18,11.83,11.83,0,0,0-.26-6.94,10,10,0,0,1,.05-6.77c.38-1.14.6-2.32,1-3.46A9.24,9.24,0,0,1,274,43.58a10.84,10.84,0,0,1,.21,1.65c-.08,1.5-.19,3-.34,4.48a4.6,4.6,0,0,0,1.94,4.72,3,3,0,0,1,1.3,2.1,2.7,2.7,0,0,0,1.36,2.08c1.8.83,2.1,2.38,2.27,4.06l0,.44a23.06,23.06,0,0,0,2.37,8.62,13.79,13.79,0,0,1,1,3.74,13.46,13.46,0,0,0,.42,2.5,9.16,9.16,0,0,1,.36,4.58c-.33,3.31.57,5.23,3.5,5.81a1.35,1.35,0,0,1,1.2,1.33c.08.75.18,1.49.27,2.23a11.26,11.26,0,0,0,1.77,5.51,2.62,2.62,0,0,0,2.85,1.21,2.83,2.83,0,0,0,2-2.55,23.28,23.28,0,0,0,.13-3.44,15.63,15.63,0,0,1,2.22-8.6,7.65,7.65,0,0,0,.88-2.52,44.79,44.79,0,0,0,.33-4.78c.09-2.88.61-5.58,2.93-7.59l.3-.34c2.08-2.85,3.26-5.94,2.53-9.54a17.3,17.3,0,0,1,.66-8.14c.14-.52.36-1,.54-1.54a4.13,4.13,0,0,1,.26,1.72,4.69,4.69,0,0,0,2,4.15,5.74,5.74,0,0,1,1,.94,3,3,0,0,1,.79,2.9c-.3,1.06-.59,2.12-.91,3.17a41.79,41.79,0,0,0-1.85,6.16,17,17,0,0,0,.88,8.87,6.13,6.13,0,0,1,.51,1.86,37.14,37.14,0,0,1,0,4.35,17.57,17.57,0,0,0,4.16,12.94,3.27,3.27,0,0,1,.58,3.21,31.81,31.81,0,0,0-.82,5.14,3.66,3.66,0,0,0,2.47,4l.26.27c0,.94,0,1.94,0,2.94a4.17,4.17,0,0,0,1.43,3.33,17.76,17.76,0,0,0,2.49,1.92,2,2,0,0,1,1.05,2.26c-.13.94-.17,1.89-.24,2.84a1.8,1.8,0,0,0,.92,1.9c.72.38,1.24-.06,1.77-.44l.29,0,.19.21c.88.88,1.44,1,2.22.59s.93-1.09.65-2.21a6.61,6.61,0,0,1-.3-2"/></g><g id="g24"><path id="path26" class="cls-1" d="M42.27,62.7a3.54,3.54,0,0,1-1.07.35c-.82.2-1.67.28-2.46.54a14.65,14.65,0,0,0-2.6,1.14,6.11,6.11,0,0,0-1.71,1.4A5.77,5.77,0,0,1,32,67.92c-.36-.3-.7-.65-1.11-.93-1.76-1.19-2.83-1.27-4.24-.21a18,18,0,0,1-1.6.91,20.24,20.24,0,0,1,.34-2.14c.15-.52.44-1,.64-1.52.59-1.58.41-2.23-1-3.15a1.51,1.51,0,0,1-.8-1.46c0-1,0-2,0-3a3.33,3.33,0,0,0-2-3.25c-.92-.44-1-.77-.77-1.79a17.91,17.91,0,0,0,.33-1.92c.25-2.16-.83-3.66-2.42-4.94a1.48,1.48,0,0,1-.54-.95c0-1.54-.47-3.07.13-4.6.38-1-.24-1.76-.9-2.39a3.45,3.45,0,0,1-.91-3.45c.22-1.08.71-1.41,1.8-1.26a6.85,6.85,0,0,1,.89.14c2.45.74,4.39-.19,6.11-1.88.28-.28.58-.55.85-.84a4,4,0,0,1,3.42-1.18c.85.09,1.68.29,2.53.34,1.09.06,2.18,0,3.4,0,2.39,4.33,3.41,4.85,7.09,3.51.88.9,1.88,1.71,1.23,3.28a2,2,0,0,0,.49,2.11c.71.83,1.42,1.68,2.2,2.45a17.79,17.79,0,0,0,1.78,1.41c-.39.65-.58,1-.79,1.3C47.21,43.8,47,44.7,48,45.8c1.33,1.52.63,3.12.55,4.72l-.19.39C47.42,52,46.45,53,45.5,54.11a6.92,6.92,0,0,0-1.43,3.72c-.13.79-.17,1.59-.3,2.38a3.38,3.38,0,0,1-1.5,2.49m45.54,63.65a9.08,9.08,0,0,0-2.38-4.92,9.36,9.36,0,0,1-2.72-6,6,6,0,0,0-4.2-5.47,3.13,3.13,0,0,1-1.78-1.48c-.46-.89-1-1.75-1.37-2.66a3.51,3.51,0,0,0-2.49-2.2,2.75,2.75,0,0,1-2.23-2.31c-.11-.44-.26-.87-.33-1.32a8.75,8.75,0,0,0-4.47-6.42,3.83,3.83,0,0,1-1.55-1.91,21.71,21.71,0,0,0-2.55-4.73c-1.58-1.93-3.57-3.43-6.38-2.32L55,84.52c-.34-.72-.65-1.51-1.08-2.23-1.05-1.76-1.73-1.91-3.49-.9l-.25,0c-.15-.32-.31-.67-.48-1-.61-1.2-1.15-2.44-1.83-3.6s-1.36-2-2.82-1.92c-.37,0-.75-.32-1.4-.63a14.72,14.72,0,0,1,1.54-1.06,5.51,5.51,0,0,0,2.9-3.1,1.82,1.82,0,0,1,1.25-1.18,10.89,10.89,0,0,1,2.18-.48,5.53,5.53,0,0,0,4.29-2.93,14.43,14.43,0,0,0,2-5.28,3,3,0,0,1,1.34-2.48,2.85,2.85,0,0,0,1-1.63,8.24,8.24,0,0,0,.3-2.37,4.66,4.66,0,0,1,1.31-3.53,7.35,7.35,0,0,0,1.89-6.67,11.42,11.42,0,0,1,.2-6.05,5,5,0,0,0-1.73-6.17,1.76,1.76,0,0,1-.75-1.8c.06-.45.11-.9.13-1.35.07-1.54.16-3.08.17-4.63a2.27,2.27,0,0,0-.4-1.26c-1.79-2.38-3.23-3.1-5.75-2.22a9.87,9.87,0,0,1-1.58.47c-.87.14-1.17-.14-1.27-1a17.77,17.77,0,0,0-.2-1.93,2.29,2.29,0,0,0-2.4-2,5.75,5.75,0,0,0-1.49.09,4.49,4.49,0,0,1-4-1,15.55,15.55,0,0,0-2.94-1.78c-1.77-.92-3.59-1.75-5.35-2.69a7.67,7.67,0,0,0-3.43-1,13.49,13.49,0,0,1-1.8,0,6,6,0,0,0-5,1.52C24.39,12,22.71,13.23,21,14.42c-2.28,1.57-4.74,2.35-7.51,1.46l-.59-.11a4.17,4.17,0,0,0-3.18.42,12.39,12.39,0,0,0-4.24,3.28A1.87,1.87,0,0,1,3,20.1c-1-.43-1.51-.25-2,.49-1.08,1.8-1.79,4.76.47,6.9.36.34.72.68,1.11,1a4.07,4.07,0,0,1,1.2,4.76,20.66,20.66,0,0,0-.68,2.45c-.61,3.41-.34,6.59,2.57,9A10.92,10.92,0,0,1,7.31,46.5a4.32,4.32,0,0,1,1.13,3.87c-.3,1.16-.43,2.36-.72,3.52a3.18,3.18,0,0,0,.33,2.73,1.86,1.86,0,0,1,.31,1.11,4.79,4.79,0,0,0,.51,2.61,3.68,3.68,0,0,1,.19,2.75,4.68,4.68,0,0,0,.85,4.52c.48.58.92,1.19,1.4,1.76a3,3,0,0,1,.74,2.91,5.07,5.07,0,0,0,.4,3.77,20,20,0,0,1,2.06,8.39c0,1.66.16,3.4-.84,5a2.87,2.87,0,0,0,.5,3.6,13.94,13.94,0,0,1,2.35,4.64,2.26,2.26,0,0,1-.22,2.14,8.34,8.34,0,0,0-.86,6.64,14.12,14.12,0,0,0,2,4.49,8.23,8.23,0,0,1,1.29,3.16,3.76,3.76,0,0,0,1.32,2.45,1.45,1.45,0,0,1,.51.86c.16,1.63.55,3.24.08,4.91s-.09,2.6,1.46,3.52a2.92,2.92,0,0,1,1.48,2.59c0,.85,0,1.71,0,2.55a5.15,5.15,0,0,0,1.74,3.86c.54.45,1.12.92,1.88.59a1.83,1.83,0,0,0,1.11-1.81c0-1,0-1.9-.08-2.85-.11-1.65-.05-3.22,1.65-4.15l.22-.2c1.78-1.76,2-3.61.73-5.8a5.5,5.5,0,0,1-.52-5.16,7.19,7.19,0,0,0,.65-2.3,4.69,4.69,0,0,0-.35-2.3,35.46,35.46,0,0,0-2.29-3.7c-1.25-1.9-1.95-3.83-.61-6l.19-.41a6.46,6.46,0,0,0-.06-7,1.74,1.74,0,0,1,0-2.09,3.48,3.48,0,0,0,0-4,16.31,16.31,0,0,1-1.09-2.46c-.58-1.61-.06-2.59,1.86-3.27.76.83,1.58,1.77,2.45,2.67A4.49,4.49,0,0,0,35.78,86a2.26,2.26,0,0,1,2.77,1.15c.69,1,1.27,2.15,2,3.18a15,15,0,0,0,1.9,2.3c.75.72,1.33.62,2.08-.1,1.39-1.35,1.69-1.38,3,0a3,3,0,0,0,2.61,1.18,1.48,1.48,0,0,1,1.67,1c.69,1.54,1.44,3.07,2.08,4.63.8,2,2.12,2.59,4,1.79l.82-.37c1.08-.43,1.19-.45,1.81.59.76,1.29,1.45,2.62,2.09,4a5.6,5.6,0,0,0,4.17,3.33A2.78,2.78,0,0,1,69,110.3c.24.49.53,1,.78,1.45,1.12,2.28,2.39,4.41,5,5.25l.51.33c1.29.89,2.51,1.82,2.6,3.61a15.07,15.07,0,0,0,1.48,5,4.76,4.76,0,0,0,2.18,2.57,3.75,3.75,0,0,1,1.8,2.11,25.29,25.29,0,0,0,1.16,2.61c.58,1.17,1.65,1.9,2.4,1.71s1.19-1.07,1.15-2.54c0-.64-.34-1.36-.16-1.92.49-1.43.07-2.78-.14-4.14"/></g><g id="g28"><path id="path30" class="cls-1" d="M477,61.7a2.33,2.33,0,0,0-2,.1c-1.69.73-3.41,1.42-5.06,2.25a10.63,10.63,0,0,0-3,2c-2.5,2.65-6.11,3.61-8.79,5.95l-.27.13c-2.41,1-4.77,2.08-7.24,2.86-2.15.68-4.36,1.08-5.81,3.14a3.14,3.14,0,0,1,.16-1.37,3.56,3.56,0,0,0-.4-3.29c-.48-.77-1-1.49-1.49-2.26a2.39,2.39,0,0,1-.5-1.19,3.89,3.89,0,0,0-1-2.45,3.25,3.25,0,0,1-.66-1.75c-.1-3.09-.08-6.19-.14-9.28a4.05,4.05,0,0,0-2.07-3.6,2.2,2.2,0,0,1-1-1.07c-.83-3-2.65-5.74-2.78-9a3.39,3.39,0,0,0-.25-1c-1-2.56-1.93-5.15-3-7.67a15,15,0,0,0-1.8-2.93c-.26-.35-.89-.77-1.18-.66a1.73,1.73,0,0,0-1,1.14,10.69,10.69,0,0,0,0,2.53c.08,2.59.18,5.18.28,7.82a2.29,2.29,0,0,0-1.93,2.75c.13,1.74.33,3.47.53,5.2.11,1,.37,2,.4,3,.05,2,0,3.9,0,5.85a13.9,13.9,0,0,0,1.26,6.27,13.22,13.22,0,0,1,1.35,5.18c0,1,.1,1.9.07,2.85a2.53,2.53,0,0,0,1,2.22c.5.38,1.08.66,1.91,1.16-.65,2.36-1.25,4.78-2,7.16s-1.67,4.48-1,7c.29,1.14-.16,1.61-1.3,2-.7.24-1.44.4-2.14.67-1.81.71-3.66,1.36-5.4,2.22-1.5.74-1.59,1.69-.53,3l.23.33-.17.28c-.34.21-.68.41-1,.59a18.88,18.88,0,0,0-5.71,4.8,2.49,2.49,0,0,0-.22,3.54c1,1.55,1,2.07-.36,3.31-1.67,1.51-3.37,3-5.09,4.43a5.69,5.69,0,0,0-1.79,2.35,1.49,1.49,0,0,1-.71.84,7.21,7.21,0,0,0-3.84,3.63,7.86,7.86,0,0,1-3.3,3.38c-.79.41-1.66.69-2.44,1.12a46.62,46.62,0,0,0-9.19,7.43,7.63,7.63,0,0,0-1.42,2.43,2,2,0,0,0,.33,2.6,2.24,2.24,0,0,0,2.79,0l.62-.43c2-1.7,4-3.44,6.08-5.1a8.74,8.74,0,0,1,2.54-1.53c1.8-.6,3.65-1,5.5-1.44a9.85,9.85,0,0,0,5.19-2.79c1.93-2,4-4,6-5.91a5.61,5.61,0,0,1,1-.85,6.7,6.7,0,0,0,2.79-3.26,23.09,23.09,0,0,1,4.22-6.34c.74-.87,1.56-1.69,2.25-2.6a5.57,5.57,0,0,0,1-2,8.13,8.13,0,0,1,3.62-5c2.55-1.67,5.05-3.41,7.59-5.11a7.36,7.36,0,0,0,2.52-2.9,11.94,11.94,0,0,1,1.41-2.11,11.52,11.52,0,0,1,5.86-3.71,12.74,12.74,0,0,0,8.09-7.06,4.83,4.83,0,0,1,1.93-2,9.52,9.52,0,0,1,1.76-.85A15.26,15.26,0,0,0,463,75.74a14.77,14.77,0,0,1,2.66-1.95A35.71,35.71,0,0,0,473.52,68c1.38-1.3,2.7-2.67,4-4.07.82-.88.59-1.74-.49-2.26"/></g><g id="g32"><path id="path34" class="cls-1" d="M224.59,86.65c-.51.42-.88,1-1.36,1.45-.82.8-1.84.66-2-.39a9.75,9.75,0,0,1,.27-3,2.42,2.42,0,0,1,1.64-2.11A14.62,14.62,0,0,0,226,80.42c.25,2.41.64,4.54-1.39,6.23M185.54,75.34c.87-2.31,1.69-4.48,2.5-6.65l.39.1a18.45,18.45,0,0,0,0,3.41,16.41,16.41,0,0,0,1.3,3.14Zm47.7,13.37a14,14,0,0,1-1.44-6.22c.09-1.54,0-3.09,0-4.63a19.31,19.31,0,0,1,.37-3.72c.49-2.13,1.14-4.24,1.76-6.35a2.8,2.8,0,0,0-.42-2.7,4.05,4.05,0,0,1-.69-3.68c.38-1.6.89-3.18,1.31-4.77a5.6,5.6,0,0,0,.3-1.75,2.41,2.41,0,0,0-1.42-2.3,2.29,2.29,0,0,0-2.69.77,6.52,6.52,0,0,0-1.27,1.84A29.54,29.54,0,0,0,228,58.92c-.61,2.46-1.16,4.94-1.73,7.41l-.2.56a13.83,13.83,0,0,0-1.86,6,3.15,3.15,0,0,1-1.74,2.41,21.85,21.85,0,0,0-4.09,3.21,41.13,41.13,0,0,0-3.14,3.8,18.86,18.86,0,0,1,.13-2.61c.53-2.94,1.15-5.87,1.72-8.81.28-1.47.59-2.95.77-4.43a5.86,5.86,0,0,0-.14-2.36,2.21,2.21,0,0,0-1.94-1.82,2.4,2.4,0,0,0-2.31,1.39,6.81,6.81,0,0,0-.46.94c-1.31,3.26-2.62,6.52-4,10-.47-2.13-1.34-3.67-3.72-3.12a12.48,12.48,0,0,1-1.33-4.25,5.69,5.69,0,0,0-1.54-2.86,1.82,1.82,0,0,0-2.09-.36A1.69,1.69,0,0,0,199,65.67c0,.75-.12,1.49-.17,2.24-.09,1.23-.24,2.48-.24,3.71a31.6,31.6,0,0,0,.22,3.89c.22,1.93-1,3.2-2,4.73a30,30,0,0,1-1.31-2.72,16.46,16.46,0,0,1-.26-1.92c-.21-1-.54-1.92-.76-2.89s-.46-2.24-.65-3.36c-.09-.54-.06-1.1-.16-1.63a44,44,0,0,1-1.23-7.83,9.6,9.6,0,0,0-.34-2.5c-.24-.91-.92-1.4-1.61-1.24a3.19,3.19,0,0,0-2.26,1.36A18.88,18.88,0,0,0,187,60.2c-.36,1-.57,2-.84,3a1.27,1.27,0,0,1-1.37,1.11c-1.44-.07-2.17.83-2.68,2-.36.83-.62,1.7-1,2.49a7.39,7.39,0,0,0-.47,6.51,3.16,3.16,0,0,1,.09,2.34c-1,2.71-1.47,5.61-3.08,8.1a3.83,3.83,0,0,0-.65,1.66c-.09,1-.31,2.18.13,2.9a6.71,6.71,0,0,1,.92,4,3.29,3.29,0,0,0,.1.89,2,2,0,0,0,1.74,1.62c.88,0,1.41-.41,1.74-1.54a4.79,4.79,0,0,1,1.17-2.21,2.34,2.34,0,0,0,.54-2.64,1.9,1.9,0,0,1,.35-2,10.89,10.89,0,0,0,1-1.33,3.48,3.48,0,0,0,.51-1.51c0-1.68.89-2.88,1.86-4.19a3.75,3.75,0,0,0,.8.6,3.27,3.27,0,0,1,2,2.46c.46,1.53.83,3.1,1.41,4.58.8,2,1.76,4,2.67,6l.37.47A1.56,1.56,0,0,0,196,96a1.91,1.91,0,0,0,1.48-1.87c0-2-.07-4-.12-6,0-1.12-.11-2.24-.17-3.53a2.06,2.06,0,0,1,1.38,2.16c0,.45,0,.91,0,1.35-.27,1.72.85,2.67,2,3.6a1,1,0,0,0,1.38,0c1.07-1,2.12-2,1.91-3.7a3.71,3.71,0,0,1,0-1.33,7.23,7.23,0,0,0-.37-4.68,1.71,1.71,0,0,1,0-1.6,11.72,11.72,0,0,1,1.93,1.81c1,1.57,2,3.23,2.88,4.89.73,1.31,1.34,2.68,2,4a1.81,1.81,0,0,0,1.77,1.16,1.83,1.83,0,0,0,1.71-1.45c.16-.55.38-1.09.6-1.72l.2.21,0,.44a4.26,4.26,0,0,0,3.11,4,12.93,12.93,0,0,1,1.89.87,5.31,5.31,0,0,0,7-1.32l.92-1.19c.16.76.29,1.33.41,1.91a6.7,6.7,0,0,0,2,3.61,2.64,2.64,0,0,0,3.43.24,2.88,2.88,0,0,0,1.41-2.79,21.14,21.14,0,0,0-1.59-6.37"/></g><g id="g36"><path id="path38" class="cls-1" d="M162.59,42.53a15.46,15.46,0,0,0-3.19.67A13.78,13.78,0,0,0,156,45.1c-3,2.36-6,4.81-9,7.25-.74.61-1.38,1.36-2.45,1.26a3.21,3.21,0,0,0-2.34.82c-1.09.87-2.15,1.8-3.25,2.66a8.25,8.25,0,0,1-1.65,1c-1,.44-2,.77-3,1.15a3.79,3.79,0,0,1-.08-3.8,5.75,5.75,0,0,0,.61-1.68c.28-1.72.67-3.43-.34-5.1a4.59,4.59,0,0,1-.25-1.89,7.82,7.82,0,0,0-.22-2.51A4,4,0,0,1,134,41c.14-.43.3-.85.42-1.29a12.6,12.6,0,0,0,.29-5.79c-.44-2.16-2.3-2.83-4.06-1.49l-.93.69c-1.77-.44-2.11-.4-2.89.76a4.17,4.17,0,0,0-.68,1.79c-.1.89,0,1.8,0,2.7a55.33,55.33,0,0,1-.28,8.36,54.09,54.09,0,0,1-2.72,10.43,21.9,21.9,0,0,0-.76,3.2c-.23,1-.4,2.06-.7,3-.48,1.57-1.09,3.1-1.56,4.68a4.61,4.61,0,0,0-.1,1.78,2.28,2.28,0,0,0,1.63,2,1.74,1.74,0,0,0,2-.77c.6-.73,1.19-1.47,1.8-2.2.27-.31.59-.58.88-.86l.36.2c-.21.85-.44,1.7-.63,2.55a8.94,8.94,0,0,0-.35,1.9,12.49,12.49,0,0,1-1.61,6.59c-.52.87-.81,2,.07,2.79a2.47,2.47,0,0,1,.68,2.7q-.82,4.65-1.7,9.29a6.53,6.53,0,0,1-.5,1.57,24.52,24.52,0,0,0-1.49,5.31c-.43,1.94.47,3.17,1.62,4.39a1.28,1.28,0,0,0,2.1.1,6.71,6.71,0,0,0,1.67-2.42,44.34,44.34,0,0,1,2.06-5.46,6.38,6.38,0,0,0,.43-1.43c.41-1.91.8-3.82,1.19-5.72s.75-3.61,1.18-5.65c1.59.74,2.36-.3,3.19-1.29a3.24,3.24,0,0,1,.9-.51,12.5,12.5,0,0,0,.92,2.36A13.31,13.31,0,0,0,138.12,87l.35.49c1.26,2.33,2.65,4.63,2.83,7.36a5.36,5.36,0,0,0,2.22,3.91,7.7,7.7,0,0,1,2.69,4.55,15.77,15.77,0,0,0,3.19,6.37,5.23,5.23,0,0,1,1.07,2.73,7,7,0,0,0,.54,2.46,9.86,9.86,0,0,1,1.19,3.82,1.74,1.74,0,0,0,1.82,1.62c1.06,0,1.57-.42,1.83-1.57a5.07,5.07,0,0,0,.08-.69c1.51,0,2.25-.38,2.44-1.53a8.79,8.79,0,0,0-.18-4.74c-.3-.74-.54-1.5-.79-2.26-1.47-4.47-2.88-8.94-3.13-13.7a7.41,7.41,0,0,0-1.29-3.3,14,14,0,0,1-2.18-5.35c-.43-2.69-1.53-3.64-4.21-4.09A3.6,3.6,0,0,1,144,81.66c-1.44-2-2.92-4.06-4.38-6.08a8.38,8.38,0,0,1-.54-.91c-.49-.8-.94-1.63-1.46-2.41A2.67,2.67,0,0,1,139,68.11c1.12-.43,2.25-.83,3.37-1.26a9.25,9.25,0,0,0,6.23-6.75,5.86,5.86,0,0,1,3.6-4.49c.42-.15.8-.43,1.21-.61A9.28,9.28,0,0,0,158,50.42a5.86,5.86,0,0,1,1.66-1.88c1.41-1.19,2.71-2.51,4-3.82a1.18,1.18,0,0,0,.33-1.49,1.21,1.21,0,0,0-1.36-.7"/></g><g id="g40"><path id="path42" class="cls-1" d="M374.56,64.05a13.74,13.74,0,0,1-1.6,2c-.35-.24-.66-.35-.79-.57A9.44,9.44,0,0,0,370,62.88c-.33-.27-.33-.93-.52-1.51a3.8,3.8,0,0,0,2.94-2.49c.89-2.21,1.39-2.43,4.38-2.15-2.2,1.48-2.18,3.25-1.71,5.24a3.36,3.36,0,0,1-.52,2.08m11.62,43.44a2.52,2.52,0,0,0,.41-2.29,39.92,39.92,0,0,0-1.35-3.8,11.06,11.06,0,0,1-1-6.25,12.64,12.64,0,0,0-2.4-9.8,4.87,4.87,0,0,1-1.05-3.87,4,4,0,0,0-.44-2.76c-1.25-2-2.45-4-4.62-5.21a1,1,0,0,1,0-1.82c.45-.3,1-.46,1.48-.73a20.47,20.47,0,0,0,2.56-1.51A7.37,7.37,0,0,1,383,67.93a4.66,4.66,0,0,0,1.35-.56,8.77,8.77,0,0,0,3.25-3.45,3.94,3.94,0,0,0,.56-2.59,10.57,10.57,0,0,0-.23-1.78,5.84,5.84,0,0,0-.93-2.3,25.92,25.92,0,0,1-2.43-3.58,1.73,1.73,0,0,1-.13-2.15,2.47,2.47,0,0,0-.6-3.37,4.36,4.36,0,0,0-4.13-1.23A5.44,5.44,0,0,1,376,46.3c-1.86-.95-3-.85-4.42.69s-2.61,3.28-3.9,4.93c-.2.26-.39.54-.62.87a3.3,3.3,0,0,1-.82-2.4c-.23-1.84-.41-3.68-.78-5.48a1.76,1.76,0,0,0-1.78-1.55,2.15,2.15,0,0,0-2,1.68,5.16,5.16,0,0,0-.08,1.31c0,1.29,0,2.59-.16,3.88-.25,2.48-.79,5-.86,7.43a41.55,41.55,0,0,1-1,8,10.55,10.55,0,0,0,0,2.81A3.07,3.07,0,0,0,361.26,71a2.06,2.06,0,0,1,1,3c-.31.79-.73,1.53-1,2.32a4.65,4.65,0,0,0,.12,4.07,5.24,5.24,0,0,1,.37,4.31,9.79,9.79,0,0,0-.33,3.84,18.58,18.58,0,0,1,0,4.77,8,8,0,0,0-.07,2,2.76,2.76,0,0,0,.62,1.44,2.35,2.35,0,0,0,4-.73,9.32,9.32,0,0,0,.6-3.35,12.38,12.38,0,0,1,1.1-4.93,16.77,16.77,0,0,0,.95-3.75,15.26,15.26,0,0,0,.13-2.12c.36.27.8.57,1.23.9a18.36,18.36,0,0,1,4.72,5.75,10.32,10.32,0,0,0,1.68,2.29,6.2,6.2,0,0,1,1.89,5,7.14,7.14,0,0,0,.28,2.81,30.39,30.39,0,0,1,1.37,5.05,7.56,7.56,0,0,0,2.15,4.21,2.59,2.59,0,0,0,4-.37"/></g><g id="g44"><path id="path46" class="cls-1" d="M386.62,71.54a1.74,1.74,0,0,0-1.4,2.24,2.12,2.12,0,0,0,2.41,2,6.8,6.8,0,0,1,3.15.71c1.56.59,2.74,2,4.69,1.81a3.87,3.87,0,0,1-.28.84,8.88,8.88,0,0,0-1.12,4.31,4.57,4.57,0,0,1-.73,2.06,3.22,3.22,0,0,0-.4,2.59,9.12,9.12,0,0,0,.8,2.09,2.2,2.2,0,0,1,.08,2.22,6,6,0,0,0,0,5.5,2.11,2.11,0,0,1,.27,1c-.11,2.14.06,4.37-.48,6.4a29.6,29.6,0,0,0-.76,8.47,6.23,6.23,0,0,0,1.11,3.68,1.3,1.3,0,0,0,2.4-.17,4,4,0,0,0,.32-.84q.66-2.15,1.29-4.29a14.86,14.86,0,0,0,.61-2.31c.4-3.37.78-6.74,1.09-10.12a10.19,10.19,0,0,1,1.59-5.23,2.73,2.73,0,0,0,.52-1.23,9.78,9.78,0,0,0-.24-4.3,2.09,2.09,0,0,1,.12-1.87,9.22,9.22,0,0,0,.88-5.82c-.12-.92-.11-1.87-.15-2.8l.36-.27a5.78,5.78,0,0,1,1.54.74,6.71,6.71,0,0,0,5.9,1.42,3.5,3.5,0,0,1,2.91.67A6.88,6.88,0,0,0,417,82.36c2,.07,2.8-.63,2.89-2.58.41-.3.84-.56,1.22-.89a1.87,1.87,0,0,0,.16-3,4.86,4.86,0,0,0-1.72-1.15,12.44,12.44,0,0,0-2.62-.6,2.2,2.2,0,0,1-1.54-.79,4.05,4.05,0,0,0-3.18-1.43c-.94,0-1.89,0-2.86,0-1.27-1.76-1.66-1.88-4-1.57a5.6,5.6,0,0,1-3.25-.13,19.11,19.11,0,0,1,.73-2.25,26.32,26.32,0,0,0,2.06-6.56,25.09,25.09,0,0,1,2.09-7.16L407,54c.26-1.73.31-3.39-1.17-4.7-1.18-1-1.21-1.3-.42-2.66s1.67-2.73,2.4-4.15a7.81,7.81,0,0,0,.89-2.66c.18-1.83-1.07-2.88-2.91-2.58A4.24,4.24,0,0,0,402.53,40c-.47,1-1,2.06-1.48,3.1-1.27,2.65-2.62,5.27-3,8.26a15.64,15.64,0,0,1-.9,3.15,14.38,14.38,0,0,0-1,5,7.09,7.09,0,0,1-.76,3.32,7,7,0,0,0-.58,4.53c.36,1.79-.2,2.42-2,2.43a3.87,3.87,0,0,0-2.68.75,3.88,3.88,0,0,1-2.35.84,6,6,0,0,0-1.19.19"/></g><g id="g48"><path id="path50" class="cls-1" d="M115.08,84.13c-1.79,1.29-3,1.3-4.77,0-.53-.38-1-.79-1.58-1.15a2.24,2.24,0,0,0-2.9,0,1.55,1.55,0,0,1-1.82.14,2.78,2.78,0,0,0-3,.26c-.72.45-1.39,1-2.12,1.41a1.22,1.22,0,0,1-2-1.11,2.7,2.7,0,0,1,.23-1.16,22.59,22.59,0,0,1,1.1-2.13A29,29,0,0,0,99.8,77.8c.9-2.09.57-3.12-1.25-4.33L97.8,73c.26-1.94,1.5-3.07,2.81-4.18,1.76-1.47,3.54-2.93,5.24-4.48,1-.86,1.58-1.95.91-3.31a5.25,5.25,0,0,1,2.93-.81c.85,0,1.7,0,2.55,0a6.52,6.52,0,0,0,5.34-2.57,2.29,2.29,0,0,0,.35-2.53,2.11,2.11,0,0,0-2.11-1.16c-1.64.07-3.29.09-4.93.24a1.88,1.88,0,0,1-1.87-.56,2.59,2.59,0,0,0-2.3-.87,10.21,10.21,0,0,0-6,2.35,3.26,3.26,0,0,0-1.14,1.84,2.89,2.89,0,0,1-2.67,2.72l-.71.22c-3,.86-4,2.07-4.39,5.12a11.35,11.35,0,0,1-.92,3.74,11.26,11.26,0,0,0-1.37,4.84,4.59,4.59,0,0,1-1.28,3,9.19,9.19,0,0,0-1.51,1.86,10.19,10.19,0,0,0-1,2.92,1.81,1.81,0,0,0,1.88,2.17c.23,0,.45,0,.82,0a10.45,10.45,0,0,0-.81,1.41,12.1,12.1,0,0,0-.73,2.71c-.12,1.43.56,2.1,2,2.22.7.05,1.4,0,2.1,0,1.46,0,1.92.51,1.63,1.94a2.9,2.9,0,0,0,1.1,3.2,3,3,0,0,1,1.23,2.69,8.54,8.54,0,0,0,.28,2.08,3.69,3.69,0,0,0,.81,1.39,1.44,1.44,0,0,0,2.14.13,7.57,7.57,0,0,0,1.45-1.87c.57-1,1-2.21,1.5-3.26a13.45,13.45,0,0,1,1.57-2.36,1.73,1.73,0,0,1,2.13-.55,3.17,3.17,0,0,0,2-.16,6.84,6.84,0,0,0,2-1.27,3.75,3.75,0,0,1,3.44-.95,5.54,5.54,0,0,0,6.43-4.62,3.15,3.15,0,0,0-.35-2c-.69-1.17-1.81-1.16-3.23-.14"/></g><g id="g52"><path id="path54" class="cls-1" d="M343.25,81a3.87,3.87,0,0,1,.54,3.07l-2.75.26-2-3.11a2.59,2.59,0,0,0-2.31-1.43c-.78,0-1.06-.43-1.19-1.07s-.25-1.38-.39-2.06a4.87,4.87,0,0,1,1.53-4.91,4.7,4.7,0,0,0,1.68-4.66c-.25-1.53.83-2.44,2.12-3.08-.22,1-.47,1.92-.65,2.89a4.13,4.13,0,0,0,2,4.48c.38.26.78.45,1.15.71a1.69,1.69,0,0,1,.79,2.31c-.17.52-.42,1-.63,1.53a6,6,0,0,0,.1,5.07m10.93-5.08a3.47,3.47,0,0,1-.63-4.12,19.12,19.12,0,0,0,1.24-3,9.85,9.85,0,0,0-.63-7.56,4.77,4.77,0,0,1-.46-1.71,4.91,4.91,0,0,0-1.48-3.17,15,15,0,0,0-5.55-3.71A7.55,7.55,0,0,0,338.56,54a52.41,52.41,0,0,0-4,4.67A6.57,6.57,0,0,1,333.2,60c-2.33,1.48-4.14,3.33-4.59,6.17a8.7,8.7,0,0,1-2,4.44,4.8,4.8,0,0,0-.32,5.86,8.76,8.76,0,0,1,1.6,7c-.13,1-.19,2-.3,3.18a20.18,20.18,0,0,0,.46,3,2,2,0,0,0,2.38,1.57,3.66,3.66,0,0,1,3.05.84,17,17,0,0,0,2.34,1.26,1.93,1.93,0,0,1,1.06.93A2.85,2.85,0,0,0,340.46,96c1.36-.26,2.66-.78,4.1-.52a1.61,1.61,0,0,0,1-.23,20.55,20.55,0,0,0,4.28-2.7,55.63,55.63,0,0,0,5.66-6.77,6,6,0,0,0,1.3-5.06,12.21,12.21,0,0,0-2.63-4.82"/></g><g id="g56"><path id="path58" class="cls-1" d="M79.4,67.64a14.15,14.15,0,0,1,.93-5.43,4.86,4.86,0,0,0,.13-4,6.73,6.73,0,0,1-.58-4.36v-.6a1.71,1.71,0,0,0-1.78-1.81,4.31,4.31,0,0,0-2.85.72,1.82,1.82,0,0,1-1,.38c-1.82-.11-2.5.39-2.27,2.15a11,11,0,0,1-.64,5.43,5.31,5.31,0,0,0-.19.88,2,2,0,0,0,1.05,2.51,1.36,1.36,0,0,1,.76,1.63A9.36,9.36,0,0,1,72.3,67c-.41,1-.91,2-1.26,3a3.66,3.66,0,0,0,1.14,4.45,2.09,2.09,0,0,1,.88,1.81c-.07,1.5-.07,3-.27,4.47a5,5,0,0,0,.12,2.94,3.87,3.87,0,0,1,.26,2.63,3.68,3.68,0,0,0,.59,3,4.47,4.47,0,0,1,.72,2.71c0,.89,0,1.8,0,2.7h0c0,1,0,2.1,0,3.15a5,5,0,0,0,1.25,3.44,1.76,1.76,0,0,0,3-.29,2.78,2.78,0,0,0,.44-1.11,18.65,18.65,0,0,0,.25-3.57,14.53,14.53,0,0,1,1.47-8.15,12.29,12.29,0,0,0,.48-1.41,6.51,6.51,0,0,0-.45-5.64l-.14-.26a2.71,2.71,0,0,1,.12-2.85c.48-.76.84-1.6,1.35-2.34A3.39,3.39,0,0,0,81,70.6a3.13,3.13,0,0,1-1.58-3"/></g><g id="g60"><path id="path62" class="cls-1" d="M73.64,46.07a3.89,3.89,0,0,0,3.93.8,3.47,3.47,0,0,0,2.26-3.26,36.69,36.69,0,0,1,.93-6.06c.53-2.15-.78-3.49-3.19-3.15.13-.72.26-1.3.33-1.88.21-1.72-1.06-3.33-2.57-3.16a4.65,4.65,0,0,0-3,1.47,3.16,3.16,0,0,0-.48,3.74,2.37,2.37,0,0,1,0,2.76,16.08,16.08,0,0,0-1.34,3,3.48,3.48,0,0,0,.93,3.85c.74.66,1.52,1.27,2.28,1.89"/></g><g id="g64"><path id="path66" class="cls-1" d="M414.63,125.54v.29h-.83V128h-.33v-2.15h-.83v-.29"/></g><g id="g68"><path id="path70" class="cls-1" d="M414.86,125.54h.47l.71,2.06.7-2.06h.47V128h-.32v-2.06l-.7,2.06h-.33l-.72-2.06V126l0,.28V128h-.31"/></g></g></svg>